<svg xmlns="http://www.w3.org/2000/svg" width="13" height="13" viewBox="0 0 13 13">
  <g id="Union_1" data-name="Union 1" transform="translate(897 1076)" fill="none">
    <path d="M-890-1066a3,3,0,0,1,3-3,3,3,0,0,1,3,3,3,3,0,0,1-3,3A3,3,0,0,1-890-1066Zm-7,0a3,3,0,0,1,3-3,3,3,0,0,1,3,3,3,3,0,0,1-3,3A3,3,0,0,1-897-1066Zm7-7a3,3,0,0,1,3-3,3,3,0,0,1,3,3,3,3,0,0,1-3,3A3,3,0,0,1-890-1073Zm-7,0a3,3,0,0,1,3-3,3,3,0,0,1,3,3,3,3,0,0,1-3,3A3,3,0,0,1-897-1073Z" stroke="none"/>
    <path d="M -887.0004272460938 -1063.999877929688 C -885.8972778320312 -1063.999877929688 -884.9998168945312 -1064.89697265625 -884.9998168945312 -1065.999633789062 C -884.9998168945312 -1067.102783203125 -885.8972778320312 -1068.000244140625 -887.0004272460938 -1068.000244140625 C -888.1030883789062 -1068.000244140625 -889.0001220703125 -1067.102783203125 -889.0001220703125 -1065.999633789062 C -889.0001220703125 -1064.89697265625 -888.1030883789062 -1063.999877929688 -887.0004272460938 -1063.999877929688 M -893.9996948242188 -1063.999877929688 C -892.8970336914062 -1063.999877929688 -892 -1064.89697265625 -892 -1065.999633789062 C -892 -1067.102783203125 -892.8970336914062 -1068.000244140625 -893.9996948242188 -1068.000244140625 C -895.1028442382812 -1068.000244140625 -896.0003051757812 -1067.102783203125 -896.0003051757812 -1065.999633789062 C -896.0003051757812 -1064.89697265625 -895.1028442382812 -1063.999877929688 -893.9996948242188 -1063.999877929688 M -887.0004272460938 -1071.000122070312 C -885.8972778320312 -1071.000122070312 -884.9998168945312 -1071.897216796875 -884.9998168945312 -1072.999877929688 C -884.9998168945312 -1074.102905273438 -885.8972778320312 -1075.000366210938 -887.0004272460938 -1075.000366210938 C -888.1030883789062 -1075.000366210938 -889.0001220703125 -1074.102905273438 -889.0001220703125 -1072.999877929688 C -889.0001220703125 -1071.897216796875 -888.1030883789062 -1071.000122070312 -887.0004272460938 -1071.000122070312 M -893.9996948242188 -1071.000122070312 C -892.8970336914062 -1071.000122070312 -892 -1071.897216796875 -892 -1072.999877929688 C -892 -1074.102905273438 -892.8970336914062 -1075.000366210938 -893.9996948242188 -1075.000366210938 C -895.1028442382812 -1075.000366210938 -896.0003051757812 -1074.102905273438 -896.0003051757812 -1072.999877929688 C -896.0003051757812 -1071.897216796875 -895.1028442382812 -1071.000122070312 -893.9996948242188 -1071.000122070312 M -887.0004272460938 -1062.999877929688 C -888.6564331054688 -1062.999877929688 -890.0001220703125 -1064.3427734375 -890.0001220703125 -1065.999633789062 C -890.0001220703125 -1067.656494140625 -888.6564331054688 -1069.000244140625 -887.0004272460938 -1069.000244140625 C -885.343505859375 -1069.000244140625 -883.9998168945312 -1067.656494140625 -883.9998168945312 -1065.999633789062 C -883.9998168945312 -1064.3427734375 -885.343505859375 -1062.999877929688 -887.0004272460938 -1062.999877929688 Z M -893.9996948242188 -1062.999877929688 C -895.6566162109375 -1062.999877929688 -897.0003051757812 -1064.3427734375 -897.0003051757812 -1065.999633789062 C -897.0003051757812 -1067.656494140625 -895.6566162109375 -1069.000244140625 -893.9996948242188 -1069.000244140625 C -892.3428344726562 -1069.000244140625 -891 -1067.656494140625 -891 -1065.999633789062 C -891 -1064.3427734375 -892.3428344726562 -1062.999877929688 -893.9996948242188 -1062.999877929688 Z M -887.0004272460938 -1070.000122070312 C -888.6564331054688 -1070.000122070312 -890.0001220703125 -1071.342895507812 -890.0001220703125 -1072.999877929688 C -890.0001220703125 -1074.65673828125 -888.6564331054688 -1076.000366210938 -887.0004272460938 -1076.000366210938 C -885.343505859375 -1076.000366210938 -883.9998168945312 -1074.65673828125 -883.9998168945312 -1072.999877929688 C -883.9998168945312 -1071.342895507812 -885.343505859375 -1070.000122070312 -887.0004272460938 -1070.000122070312 Z M -893.9996948242188 -1070.000122070312 C -895.6566162109375 -1070.000122070312 -897.0003051757812 -1071.342895507812 -897.0003051757812 -1072.999877929688 C -897.0003051757812 -1074.65673828125 -895.6566162109375 -1076.000366210938 -893.9996948242188 -1076.000366210938 C -892.3428344726562 -1076.000366210938 -891 -1074.65673828125 -891 -1072.999877929688 C -891 -1071.342895507812 -892.3428344726562 -1070.000122070312 -893.9996948242188 -1070.000122070312 Z" stroke="none" fill="#f79e09"/>
  </g>
</svg>
